{
  "accessors": [
    {
      "bufferView": 2,
      "componentType": 5126,
      "count": 65532,
      "max": [
        1.2177430391311646,
        6.630303859710693,
        0.4426810145378113
      ],
      "min": [
        -0.14295999705791473,
        5.973326206207275,
        -0.8510950207710266
      ],
      "type": "VEC3"
    },
    {
      "bufferView": 2,
      "byteOffset": 786384,
      "componentType": 5126,
      "count": 65532,
      "max": [
        0.9231691956520081,
        0.999987781047821,
        0.9999014139175415
      ],
      "min": [
        -0.999986469745636,
        -0.9999822378158569,
        -0.9999940395355225
      ],
      "type": "VEC3"
    },
    {
      "bufferView": 1,
      "componentType": 5126,
      "count": 65532,
      "max": [
        0.9996219873428345,
        0.8568400144577026
      ],
      "min": [
        0.0,
        8.099999831756577e-05
      ],
      "type": "VEC2"
    },
    {
      "bufferView": 0,
      "componentType": 5125,
      "count": 369513,
      "type": "SCALAR"
    },
    {
      "bufferView": 2,
      "byteOffset": 1572768,
      "componentType": 5126,
      "count": 65534,
      "max": [
        1.5982259511947632,
        6.652478218078613,
        0.44203999638557434
      ],
      "min": [
        0.31935200095176697,
        5.928229808807373,
        -0.8518229722976685
      ],
      "type": "VEC3"
    },
    {
      "bufferView": 2,
      "byteOffset": 2359176,
      "componentType": 5126,
      "count": 65534,
      "max": [
        0.99998939037323,
        0.9999925494194031,
        0.9999101758003235
      ],
      "min": [
        -0.9986497163772583,
        -0.9999967813491821,
        -0.999995231628418
      ],
      "type": "VEC3"
    },
    {
      "bufferView": 1,
      "byteOffset": 524256,
      "componentType": 5126,
      "count": 65534,
      "max": [
        1.0,
        0.8586009740829468
      ],
      "min": [
        0.015243000350892544,
        0.00014400000509340316
      ],
      "type": "VEC2"
    },
    {
      "bufferView": 0,
      "byteOffset": 1478052,
      "componentType": 5125,
      "count": 358083,
      "type": "SCALAR"
    },
    {
      "bufferView": 2,
      "byteOffset": 3145584,
      "componentType": 5126,
      "count": 503,
      "max": [
        0.8660839796066284,
        6.599103927612305,
        0.4086030125617981
      ],
      "min": [
        0.5677729845046997,
        6.050108909606934,
        -0.8412219882011414
      ],
      "type": "VEC3"
    },
    {
      "bufferView": 2,
      "byteOffset": 3151620,
      "componentType": 5126,
      "count": 503,
      "max": [
        0.7614949941635132,
        0.9978512525558472,
        0.9904645085334778
      ],
      "min": [
        -0.7390418648719788,
        -0.9997574687004089,
        -0.9988704919815063
      ],
      "type": "VEC3"
    },
    {
      "bufferView": 1,
      "byteOffset": 1048528,
      "componentType": 5126,
      "count": 503,
      "max": [
        0.9124979972839355,
        0.7238590121269226
      ],
      "min": [
        0.1445630043745041,
        0.08245400339365005
      ],
      "type": "VEC2"
    },
    {
      "bufferView": 0,
      "byteOffset": 2910384,
      "componentType": 5125,
      "count": 894,
      "type": "SCALAR"
    }
  ],
  "asset": {
    "extras": {
      "author": "BCGeology (https://sketchfab.com/BCGeology)",
      "license": "CC-BY-4.0 (http://creativecommons.org/licenses/by/4.0/)",
      "source": "https://sketchfab.com/3d-models/unknown-sedimentary-rock-5f2b7942fa11452ab248e0b553ba7037",
      "title": "unknown sedimentary rock"
    },
    "generator": "Sketchfab-12.65.0",
    "version": "2.0"
  },
  "bufferViews": [
    {
      "buffer": 0,
      "byteLength": 2913960,
      "name": "floatBufferViews",
      "target": 34963
    },
    {
      "buffer": 0,
      "byteLength": 1052552,
      "byteOffset": 2913960,
      "byteStride": 8,
      "name": "floatBufferViews",
      "target": 34962
    },
    {
      "buffer": 0,
      "byteLength": 3157656,
      "byteOffset": 3966512,
      "byteStride": 12,
      "name": "floatBufferViews",
      "target": 34962
    }
  ],
  "buffers": [
    {
      "byteLength": 7124168,
      "uri": "scene.bin"
    }
  ],
  "images": [
    {
      "uri": "textures/BituminousShale_baseColor.jpeg"
    }
  ],
  "materials": [
    {
      "doubleSided": true,
      "name": "BituminousShale",
      "pbrMetallicRoughness": {
        "baseColorTexture": {
          "index": 0
        },
        "metallicFactor": 0.0
      }
    }
  ],
  "meshes": [
    {
      "name": "Object_0",
      "primitives": [
        {
          "attributes": {
            "NORMAL": 1,
            "POSITION": 0,
            "TEXCOORD_0": 2
          },
          "indices": 3,
          "material": 0,
          "mode": 4
        }
      ]
    },
    {
      "name": "Object_1",
      "primitives": [
        {
          "attributes": {
            "NORMAL": 5,
            "POSITION": 4,
            "TEXCOORD_0": 6
          },
          "indices": 7,
          "material": 0,
          "mode": 4
        }
      ]
    },
    {
      "name": "Object_2",
      "primitives": [
        {
          "attributes": {
            "NORMAL": 9,
            "POSITION": 8,
            "TEXCOORD_0": 10
          },
          "indices": 11,
          "material": 0,
          "mode": 4
        }
      ]
    }
  ],
  "nodes": [
    {
      "children": [
        1
      ],
      "matrix": [
        1.0,
        0.0,
        0.0,
        0.0,
        0.0,
        2.220446049250313e-16,
        -1.0,
        0.0,
        0.0,
        1.0,
        2.220446049250313e-16,
        0.0,
        0.0,
        0.0,
        0.0,
        1.0
      ],
      "name": "Sketchfab_model"
    },
    {
      "children": [
        2,
        3,
        4
      ],
      "name": "BituminousShale.obj.cleaner.materialmerger.gles"
    },
    {
      "mesh": 0,
      "name": "Object_2"
    },
    {
      "mesh": 1,
      "name": "Object_3"
    },
    {
      "mesh": 2,
      "name": "Object_4"
    }
  ],
  "samplers": [
    {
      "magFilter": 9729,
      "minFilter": 9987,
      "wrapS": 10497,
      "wrapT": 10497
    }
  ],
  "scene": 0,
  "scenes": [
    {
      "name": "Sketchfab_Scene",
      "nodes": [
        0
      ]
    }
  ],
  "textures": [
    {
      "sampler": 0,
      "source": 0
    }
  ]
}
