{
  "accessors": [
    {
      "bufferView": 1,
      "componentType": 5126,
      "count": 65532,
      "max": [
        137.57772827148438,
        41.5511474609375,
        169.17318725585938
      ],
      "min": [
        0.0,
        13.289066314697266,
        0.17889772355556488
      ],
      "type": "VEC3"
    },
    {
      "bufferView": 1,
      "byteOffset": 786384,
      "componentType": 5126,
      "count": 65532,
      "max": [
        0.9999479651451111,
        1.0,
        0.9999817609786987
      ],
      "min": [
        -0.9999979138374329,
        -0.9999920725822449,
        -0.9998878836631775
      ],
      "type": "VEC3"
    },
    {
      "bufferView": 0,
      "componentType": 5125,
      "count": 341187,
      "type": "SCALAR"
    },
    {
      "bufferView": 1,
      "byteOffset": 1572768,
      "componentType": 5126,
      "count": 65532,
      "max": [
        131.53614807128906,
        41.31098175048828,
        169.03318786621094
      ],
      "min": [
        8.223618507385254,
        0.0,
        0.0
      ],
      "type": "VEC3"
    },
    {
      "bufferView": 1,
      "byteOffset": 2359152,
      "componentType": 5126,
      "count": 65532,
      "max": [
        0.9999260306358337,
        0.9999997615814209,
        0.9999817609786987
      ],
      "min": [
        -0.9999974966049194,
        -0.9999929666519165,
        -0.9999912977218628
      ],
      "type": "VEC3"
    },
    {
      "bufferView": 0,
      "byteOffset": 1364748,
      "componentType": 5125,
      "count": 325644,
      "type": "SCALAR"
    },
    {
      "bufferView": 1,
      "byteOffset": 3145536,
      "componentType": 5126,
      "count": 65532,
      "max": [
        102.86618041992188,
        41.52911376953125,
        169.07028198242188
      ],
      "min": [
        18.997318267822266,
        2.5783684253692627,
        0.030586065724492073
      ],
      "type": "VEC3"
    },
    {
      "bufferView": 1,
      "byteOffset": 3931920,
      "componentType": 5126,
      "count": 65532,
      "max": [
        0.9999997019767761,
        1.0,
        0.9931648373603821
      ],
      "min": [
        -0.9999958872795105,
        -0.9999573826789856,
        -0.9994953870773315
      ],
      "type": "VEC3"
    },
    {
      "bufferView": 0,
      "byteOffset": 2667324,
      "componentType": 5125,
      "count": 333357,
      "type": "SCALAR"
    },
    {
      "bufferView": 1,
      "byteOffset": 4718304,
      "componentType": 5126,
      "count": 55381,
      "max": [
        131.0402069091797,
        41.5511474609375,
        169.17318725585938
      ],
      "min": [
        24.02823257446289,
        5.062191486358643,
        0.018641062080860138
      ],
      "type": "VEC3"
    },
    {
      "bufferView": 1,
      "byteOffset": 5382876,
      "componentType": 5126,
      "count": 55381,
      "max": [
        0.9999997019767761,
        0.9999998211860657,
        0.9998314380645752
      ],
      "min": [
        -0.9999974966049194,
        -0.9999575018882751,
        -0.9999974966049194
      ],
      "type": "VEC3"
    },
    {
      "bufferView": 0,
      "byteOffset": 4000752,
      "componentType": 5125,
      "count": 201330,
      "type": "SCALAR"
    }
  ],
  "asset": {
    "extras": {
      "author": "dudemeister (https://sketchfab.com/dudemeister)",
      "license": "CC-BY-4.0 (http://creativecommons.org/licenses/by/4.0/)",
      "source": "https://sketchfab.com/3d-models/totem-pole-5b0ded8fb51c4e89b0018d42f9ea3192",
      "title": "Totem Pole"
    },
    "generator": "Sketchfab-12.66.0",
    "version": "2.0"
  },
  "bufferViews": [
    {
      "buffer": 0,
      "byteLength": 4806072,
      "name": "floatBufferViews",
      "target": 34963
    },
    {
      "buffer": 0,
      "byteLength": 6047448,
      "byteOffset": 4806072,
      "byteStride": 12,
      "name": "floatBufferViews",
      "target": 34962
    }
  ],
  "buffers": [
    {
      "byteLength": 10853520,
      "uri": "scene.bin"
    }
  ],
  "materials": [
    {
      "doubleSided": true,
      "name": "Scene_-_Root",
      "pbrMetallicRoughness": {
        "baseColorFactor": [
          0.06557566258737889,
          0.05584074792320448,
          0.05584074792320448,
          1.0
        ],
        "metallicFactor": 0.34,
        "roughnessFactor": 0.4
      }
    }
  ],
  "meshes": [
    {
      "name": "Object_0",
      "primitives": [
        {
          "attributes": {
            "NORMAL": 1,
            "POSITION": 0
          },
          "indices": 2,
          "material": 0,
          "mode": 4
        }
      ]
    },
    {
      "name": "Object_1",
      "primitives": [
        {
          "attributes": {
            "NORMAL": 4,
            "POSITION": 3
          },
          "indices": 5,
          "material": 0,
          "mode": 4
        }
      ]
    },
    {
      "name": "Object_2",
      "primitives": [
        {
          "attributes": {
            "NORMAL": 7,
            "POSITION": 6
          },
          "indices": 8,
          "material": 0,
          "mode": 4
        }
      ]
    },
    {
      "name": "Object_3",
      "primitives": [
        {
          "attributes": {
            "NORMAL": 10,
            "POSITION": 9
          },
          "indices": 11,
          "material": 0,
          "mode": 4
        }
      ]
    }
  ],
  "nodes": [
    {
      "children": [
        1
      ],
      "matrix": [
        1.0,
        0.0,
        0.0,
        0.0,
        0.0,
        2.220446049250313e-16,
        -1.0,
        0.0,
        0.0,
        1.0,
        2.220446049250313e-16,
        0.0,
        0.0,
        0.0,
        0.0,
        1.0
      ],
      "name": "Sketchfab_model"
    },
    {
      "children": [
        2,
        3,
        4,
        5
      ],
      "matrix": [
        1.0,
        0.0,
        0.0,
        0.0,
        0.0,
        1.0,
        0.0,
        0.0,
        0.0,
        0.0,
        1.0,
        0.0,
        0.002858503255993128,
        0.006402762606739998,
        0.006498599424958229,
        1.0
      ],
      "name": "Totem pole_.stl.cleaner.gles"
    },
    {
      "mesh": 0,
      "name": "Object_2"
    },
    {
      "mesh": 1,
      "name": "Object_3"
    },
    {
      "mesh": 2,
      "name": "Object_4"
    },
    {
      "mesh": 3,
      "name": "Object_5"
    }
  ],
  "scene": 0,
  "scenes": [
    {
      "name": "Sketchfab_Scene",
      "nodes": [
        0
      ]
    }
  ]
}
