{
  "accessors": [
    {
      "bufferView": 1,
      "componentType": 5126,
      "count": 65532,
      "max": [
        24.8375301361084,
        1.2461600303649902,
        1.0175100564956665
      ],
      "min": [
        -1.3933600187301636,
        -23.086179733276367,
        -1.0646400451660156
      ],
      "type": "VEC3"
    },
    {
      "bufferView": 1,
      "byteOffset": 786384,
      "componentType": 5126,
      "count": 65532,
      "max": [
        0.9999929070472717,
        0.9999677538871765,
        0.9999931454658508
      ],
      "min": [
        -0.9999759793281555,
        -0.9999883770942688,
        -0.9999992251396179
      ],
      "type": "VEC3"
    },
    {
      "bufferView": 0,
      "componentType": 5125,
      "count": 392061,
      "type": "SCALAR"
    },
    {
      "bufferView": 1,
      "byteOffset": 1572768,
      "componentType": 5126,
      "count": 65532,
      "max": [
        35.26459884643555,
        -14.895380020141602,
        1.0307999849319458
      ],
      "min": [
        6.775420188903809,
        -37.213809967041016,
        -1.0573899745941162
      ],
      "type": "VEC3"
    },
    {
      "bufferView": 1,
      "byteOffset": 2359152,
      "componentType": 5126,
      "count": 65532,
      "max": [
        0.999973714351654,
        0.9999929070472717,
        0.9999982714653015
      ],
      "min": [
        -0.9999380111694336,
        -0.9999986290931702,
        -0.9999998211860657
      ],
      "type": "VEC3"
    },
    {
      "bufferView": 0,
      "byteOffset": 1568244,
      "componentType": 5125,
      "count": 391236,
      "type": "SCALAR"
    },
    {
      "bufferView": 1,
      "byteOffset": 3145536,
      "componentType": 5126,
      "count": 65532,
      "max": [
        37.404869079589844,
        1.2058000564575195,
        1.016029953956604
      ],
      "min": [
        22.651960372924805,
        -33.19279861450195,
        -1.0578199625015259
      ],
      "type": "VEC3"
    },
    {
      "bufferView": 1,
      "byteOffset": 3931920,
      "componentType": 5126,
      "count": 65532,
      "max": [
        0.999983012676239,
        0.9999962449073792,
        0.999999463558197
      ],
      "min": [
        -0.9999955296516418,
        -0.9999973177909851,
        -0.999999463558197
      ],
      "type": "VEC3"
    },
    {
      "bufferView": 0,
      "byteOffset": 3133188,
      "componentType": 5125,
      "count": 390507,
      "type": "SCALAR"
    },
    {
      "bufferView": 1,
      "byteOffset": 4718304,
      "componentType": 5126,
      "count": 65532,
      "max": [
        37.30686950683594,
        0.7465999722480774,
        1.0264400243759155
      ],
      "min": [
        -1.400189995765686,
        -37.18843078613281,
        -1.0545599460601807
      ],
      "type": "VEC3"
    },
    {
      "bufferView": 1,
      "byteOffset": 5504688,
      "componentType": 5126,
      "count": 65532,
      "max": [
        0.9999870657920837,
        0.9999819397926331,
        0.9999995827674866
      ],
      "min": [
        -0.9999955296516418,
        -0.9999781250953674,
        -0.9999995827674866
      ],
      "type": "VEC3"
    },
    {
      "bufferView": 0,
      "byteOffset": 4695216,
      "componentType": 5125,
      "count": 388812,
      "type": "SCALAR"
    },
    {
      "bufferView": 1,
      "byteOffset": 6291072,
      "componentType": 5126,
      "count": 46073,
      "max": [
        37.09627914428711,
        0.92221999168396,
        1.0113500356674194
      ],
      "min": [
        -1.2668100595474243,
        -36.994449615478516,
        -1.0539900064468384
      ],
      "type": "VEC3"
    },
    {
      "bufferView": 1,
      "byteOffset": 6843948,
      "componentType": 5126,
      "count": 46073,
      "max": [
        0.9999462962150574,
        0.9999975562095642,
        0.9999929070472717
      ],
      "min": [
        -0.9999904036521912,
        -0.9999467730522156,
        -0.9999997019767761
      ],
      "type": "VEC3"
    },
    {
      "bufferView": 0,
      "byteOffset": 6250464,
      "componentType": 5125,
      "count": 274440,
      "type": "SCALAR"
    }
  ],
  "asset": {
    "extras": {
      "author": "AaronJOlson (https://sketchfab.com/aaolson817)",
      "license": "CC-BY-4.0 (http://creativecommons.org/licenses/by/4.0/)",
      "source": "https://sketchfab.com/3d-models/cave-maze-environment-9586693b20674bed8f53111fe2657439",
      "title": "Cave Maze Environment"
    },
    "generator": "Sketchfab-12.68.0",
    "version": "2.0"
  },
  "bufferViews": [
    {
      "buffer": 0,
      "byteLength": 7348224,
      "name": "floatBufferViews",
      "target": 34963
    },
    {
      "buffer": 0,
      "byteLength": 7396824,
      "byteOffset": 7348224,
      "byteStride": 12,
      "name": "floatBufferViews",
      "target": 34962
    }
  ],
  "buffers": [
    {
      "byteLength": 14745048,
      "uri": "scene.bin"
    }
  ],
  "materials": [
    {
      "doubleSided": true,
      "name": "Root",
      "pbrMetallicRoughness": {
        "metallicFactor": 0.0,
        "roughnessFactor": 0.6
      }
    }
  ],
  "meshes": [
    {
      "name": "Cube_0",
      "primitives": [
        {
          "attributes": {
            "NORMAL": 1,
            "POSITION": 0
          },
          "indices": 2,
          "material": 0,
          "mode": 4
        }
      ]
    },
    {
      "name": "Cube_0",
      "primitives": [
        {
          "attributes": {
            "NORMAL": 4,
            "POSITION": 3
          },
          "indices": 5,
          "material": 0,
          "mode": 4
        }
      ]
    },
    {
      "name": "Cube_0",
      "primitives": [
        {
          "attributes": {
            "NORMAL": 7,
            "POSITION": 6
          },
          "indices": 8,
          "material": 0,
          "mode": 4
        }
      ]
    },
    {
      "name": "Cube_0",
      "primitives": [
        {
          "attributes": {
            "NORMAL": 10,
            "POSITION": 9
          },
          "indices": 11,
          "material": 0,
          "mode": 4
        }
      ]
    },
    {
      "name": "Cube_0",
      "primitives": [
        {
          "attributes": {
            "NORMAL": 13,
            "POSITION": 12
          },
          "indices": 14,
          "material": 0,
          "mode": 4
        }
      ]
    }
  ],
  "nodes": [
    {
      "children": [
        1
      ],
      "matrix": [
        1.0,
        0.0,
        0.0,
        0.0,
        0.0,
        2.220446049250313e-16,
        -1.0,
        0.0,
        0.0,
        1.0,
        2.220446049250313e-16,
        0.0,
        0.0,
        0.0,
        0.0,
        1.0
      ],
      "name": "Sketchfab_model"
    },
    {
      "children": [
        2,
        4
      ],
      "name": "Root"
    },
    {
      "children": [
        3
      ],
      "matrix": [
        -0.29086000000000006,
        0.9551700000000001,
        -0.05519000000000001,
        0.0,
        -0.7711,
        -0.19988000000000003,
        0.6045200000000001,
        0.0,
        0.5663900000000001,
        0.21839000000000003,
        0.7946700000000001,
        0.0,
        4.076250000000001,
        1.00545,
        5.903860000000001,
        1.0
      ],
      "name": "Lamp"
    },
    {
      "name": "Lamp"
    },
    {
      "children": [
        5,
        6,
        7,
        8,
        9
      ],
      "name": "Cube"
    },
    {
      "mesh": 0,
      "name": "Cube_0"
    },
    {
      "mesh": 1,
      "name": "Cube_0"
    },
    {
      "mesh": 2,
      "name": "Cube_0"
    },
    {
      "mesh": 3,
      "name": "Cube_0"
    },
    {
      "mesh": 4,
      "name": "Cube_0"
    }
  ],
  "scene": 0,
  "scenes": [
    {
      "name": "Sketchfab_Scene",
      "nodes": [
        0
      ]
    }
  ]
}
