{
  "accessors": [
    {
      "bufferView": 2,
      "componentType": 5126,
      "count": 1875,
      "max": [
        24.662792205810547,
        14.857512474060059,
        26.683168411254883
      ],
      "min": [
        -27.923501968383789,
        -13.914334297180176,
        -19.899629592895508
      ],
      "type": "VEC3"
    },
    {
      "bufferView": 2,
      "byteOffset": 22500,
      "componentType": 5126,
      "count": 1875,
      "max": [
        0.99866312742233276,
        0.99826252460479736,
        0.99992126226425171
      ],
      "min": [
        -0.99614089727401733,
        -0.99960911273956299,
        -0.98427730798721313
      ],
      "type": "VEC3"
    },
    {
      "bufferView": 3,
      "componentType": 5126,
      "count": 1875,
      "max": [
        0,
        0,
        0,
        1
      ],
      "min": [
        0,
        0,
        0,
        1
      ],
      "type": "VEC4"
    },
    {
      "bufferView": 1,
      "componentType": 5126,
      "count": 1875,
      "max": [
        0,
        0
      ],
      "min": [
        0,
        0
      ],
      "type": "VEC2"
    },
    {
      "bufferView": 0,
      "componentType": 5125,
      "count": 2634,
      "max": [
        1874
      ],
      "min": [
        0
      ],
      "type": "SCALAR"
    }
  ],
  "asset": {
    "extras": {
      "author": "louieoliva (https://sketchfab.com/louieoliva)",
      "license": "CC-BY-4.0 (http://creativecommons.org/licenses/by/4.0/)",
      "source": "https://sketchfab.com/3d-models/low-poly-rocks-pack-e347ae580a78440f8709c89e3d0eaf54",
      "title": "Low Poly Rocks Pack"
    },
    "generator": "Sketchfab-6.82.0",
    "version": "2.0"
  },
  "bufferViews": [
    {
      "buffer": 0,
      "byteLength": 10536,
      "byteOffset": 0,
      "name": "floatBufferViews",
      "target": 34963
    },
    {
      "buffer": 0,
      "byteLength": 15000,
      "byteOffset": 10536,
      "byteStride": 8,
      "name": "floatBufferViews",
      "target": 34962
    },
    {
      "buffer": 0,
      "byteLength": 45000,
      "byteOffset": 25536,
      "byteStride": 12,
      "name": "floatBufferViews",
      "target": 34962
    },
    {
      "buffer": 0,
      "byteLength": 30000,
      "byteOffset": 70536,
      "byteStride": 16,
      "name": "floatBufferViews",
      "target": 34962
    }
  ],
  "buffers": [
    {
      "byteLength": 100536,
      "uri": "scene.bin"
    }
  ],
  "materials": [
    {
      "doubleSided": true,
      "emissiveFactor": [
        0,
        0,
        0
      ],
      "name": "Normal",
      "pbrMetallicRoughness": {
        "baseColorFactor": [
          0.24763099999999999,
          0.244585,
          0.23558000000000001,
          1
        ],
        "metallicFactor": 0,
        "roughnessFactor": 0.94530970859090913
      }
    }
  ],
  "meshes": [
    {
      "name": "Plane.007_Normal_0",
      "primitives": [
        {
          "attributes": {
            "NORMAL": 1,
            "POSITION": 0,
            "TANGENT": 2,
            "TEXCOORD_0": 3
          },
          "indices": 4,
          "material": 0,
          "mode": 4
        }
      ]
    }
  ],
  "nodes": [
    {
      "children": [
        1
      ],
      "name": "RootNode (gltf orientation matrix)",
      "rotation": [
        -0.70710678118654746,
        -0,
        -0,
        0.70710678118654757
      ]
    },
    {
      "children": [
        2
      ],
      "name": "RootNode (model correction matrix)"
    },
    {
      "children": [
        3
      ],
      "matrix": [
        1,
        0,
        0,
        0,
        0,
        0,
        1,
        0,
        0,
        -1,
        0,
        0,
        0,
        0,
        0,
        1
      ],
      "name": "eff716ce32a849229fd15dc080294290.fbx"
    },
    {
      "children": [
        4
      ],
      "name": "RootNode"
    },
    {
      "children": [
        5
      ],
      "matrix": [
        24.75055206172939,
        4.9374930959541172e-07,
        38.848707379633915,
        0,
        76.608399097280142,
        58.383613513558316,
        -48.807291849402901,
        0,
        -21.005109946708828,
        38.749321764635297,
        13.382377001260593,
        0,
        -46.362400054931641,
        21.089149475097656,
        10.437204360961914,
        1
      ],
      "name": "Plane.007"
    },
    {
      "mesh": 0,
      "name": "Plane.007_Normal_0"
    }
  ],
  "scene": 0,
  "scenes": [
    {
      "name": "OSG_Scene",
      "nodes": [
        0
      ]
    }
  ]
}

