{
  "accessors": [
    {
      "bufferView": 2,
      "componentType": 5126,
      "count": 65532,
      "max": [
        5.553976535797119,
        5.391655921936035,
        3.4603986740112305
      ],
      "min": [
        -5.686893939971924,
        -5.63613224029541,
        -5.316603660583496
      ],
      "type": "VEC3"
    },
    {
      "bufferView": 2,
      "byteOffset": 786384,
      "componentType": 5126,
      "count": 65532,
      "max": [
        0.9999430179595947,
        0.9999845027923584,
        0.9999920129776001
      ],
      "min": [
        -0.9999638199806213,
        -0.9997649192810059,
        -0.9998164176940918
      ],
      "type": "VEC3"
    },
    {
      "bufferView": 1,
      "componentType": 5126,
      "count": 65532,
      "max": [
        0.9999905228614807,
        0.9987661242485046
      ],
      "min": [
        4.708175765699707e-06,
        8.52991797728464e-06
      ],
      "type": "VEC2"
    },
    {
      "bufferView": 1,
      "byteOffset": 524256,
      "componentType": 5126,
      "count": 65532,
      "max": [
        0.9999905228614807,
        0.9987661242485046
      ],
      "min": [
        4.708175765699707e-06,
        8.52991797728464e-06
      ],
      "type": "VEC2"
    },
    {
      "bufferView": 0,
      "componentType": 5125,
      "count": 327012,
      "type": "SCALAR"
    },
    {
      "bufferView": 2,
      "byteOffset": 1572768,
      "componentType": 5126,
      "count": 4005,
      "max": [
        3.0991861820220947,
        4.6718573570251465,
        1.045609474182129
      ],
      "min": [
        -1.941019058227539,
        0.1972319781780243,
        -4.350748062133789
      ],
      "type": "VEC3"
    },
    {
      "bufferView": 2,
      "byteOffset": 1620828,
      "componentType": 5126,
      "count": 4005,
      "max": [
        0.9985058307647705,
        0.9991442561149597,
        0.9999485611915588
      ],
      "min": [
        -0.9991520047187805,
        -0.9973771572113037,
        -0.9852270483970642
      ],
      "type": "VEC3"
    },
    {
      "bufferView": 1,
      "byteOffset": 1048512,
      "componentType": 5126,
      "count": 4005,
      "max": [
        0.995255172252655,
        0.8354097604751587
      ],
      "min": [
        0.012242699973285198,
        0.011485841125249863
      ],
      "type": "VEC2"
    },
    {
      "bufferView": 1,
      "byteOffset": 1080552,
      "componentType": 5126,
      "count": 4005,
      "max": [
        0.995255172252655,
        0.8354097604751587
      ],
      "min": [
        0.012242699973285198,
        0.011485841125249863
      ],
      "type": "VEC2"
    },
    {
      "bufferView": 0,
      "byteOffset": 1308048,
      "componentType": 5125,
      "count": 18648,
      "type": "SCALAR"
    },
    {
      "bufferView": 2,
      "byteOffset": 1668888,
      "componentType": 5126,
      "count": 65532,
      "max": [
        6.036619663238525,
        5.270181179046631,
        3.438566207885742
      ],
      "min": [
        -5.59688138961792,
        -5.602167129516602,
        -5.001299858093262
      ],
      "type": "VEC3"
    },
    {
      "bufferView": 2,
      "byteOffset": 2455272,
      "componentType": 5126,
      "count": 65532,
      "max": [
        0.999801516532898,
        0.9999786615371704,
        0.9999959468841553
      ],
      "min": [
        -0.9999745488166809,
        -0.9999987483024597,
        -0.9996565580368042
      ],
      "type": "VEC3"
    },
    {
      "bufferView": 1,
      "byteOffset": 1112592,
      "componentType": 5126,
      "count": 65532,
      "max": [
        0.9999822378158569,
        0.9999993443489075
      ],
      "min": [
        1.196690573124215e-05,
        1.7360202036798e-05
      ],
      "type": "VEC2"
    },
    {
      "bufferView": 1,
      "byteOffset": 1636848,
      "componentType": 5126,
      "count": 65532,
      "max": [
        0.9999822378158569,
        0.9999993443489075
      ],
      "min": [
        1.196690573124215e-05,
        1.7360202036798e-05
      ],
      "type": "VEC2"
    },
    {
      "bufferView": 0,
      "byteOffset": 1382640,
      "componentType": 5125,
      "count": 329928,
      "type": "SCALAR"
    },
    {
      "bufferView": 2,
      "byteOffset": 3241656,
      "componentType": 5126,
      "count": 4951,
      "max": [
        4.870762348175049,
        5.072084903717041,
        3.0752453804016113
      ],
      "min": [
        -1.813596487045288,
        -4.131773948669434,
        -4.432443618774414
      ],
      "type": "VEC3"
    },
    {
      "bufferView": 2,
      "byteOffset": 3301068,
      "componentType": 5126,
      "count": 4951,
      "max": [
        0.9997872710227966,
        0.9999725222587585,
        0.9999412298202515
      ],
      "min": [
        -0.9994154572486877,
        -0.995482861995697,
        -0.9711740612983704
      ],
      "type": "VEC3"
    },
    {
      "bufferView": 1,
      "byteOffset": 2161104,
      "componentType": 5126,
      "count": 4951,
      "max": [
        0.9999741315841675,
        0.9855181574821472
      ],
      "min": [
        0.0013567607384175062,
        0.008314702659845352
      ],
      "type": "VEC2"
    },
    {
      "bufferView": 1,
      "byteOffset": 2200712,
      "componentType": 5126,
      "count": 4951,
      "max": [
        0.9999741315841675,
        0.9855181574821472
      ],
      "min": [
        0.0013567607384175062,
        0.008314702659845352
      ],
      "type": "VEC2"
    },
    {
      "bufferView": 0,
      "byteOffset": 2702352,
      "componentType": 5125,
      "count": 21945,
      "type": "SCALAR"
    },
    {
      "bufferView": 2,
      "byteOffset": 3360480,
      "componentType": 5126,
      "count": 65532,
      "max": [
        5.933268070220947,
        5.167766094207764,
        3.171699047088623
      ],
      "min": [
        -5.740664958953857,
        -5.604122161865234,
        -5.271717071533203
      ],
      "type": "VEC3"
    },
    {
      "bufferView": 2,
      "byteOffset": 4146864,
      "componentType": 5126,
      "count": 65532,
      "max": [
        0.999961793422699,
        0.9999963641166687,
        0.9999644160270691
      ],
      "min": [
        -0.9999637603759766,
        -0.9998896718025208,
        -0.9999825358390808
      ],
      "type": "VEC3"
    },
    {
      "bufferView": 1,
      "byteOffset": 2240320,
      "componentType": 5126,
      "count": 65532,
      "max": [
        0.9990828633308411,
        0.9999731183052063
      ],
      "min": [
        4.676358457800234e-06,
        1.8501878003007732e-05
      ],
      "type": "VEC2"
    },
    {
      "bufferView": 1,
      "byteOffset": 2764576,
      "componentType": 5126,
      "count": 65532,
      "max": [
        0.9990828633308411,
        0.9999731183052063
      ],
      "min": [
        4.676358457800234e-06,
        1.8501878003007732e-05
      ],
      "type": "VEC2"
    },
    {
      "bufferView": 0,
      "byteOffset": 2790132,
      "componentType": 5125,
      "count": 327504,
      "type": "SCALAR"
    },
    {
      "bufferView": 2,
      "byteOffset": 4933248,
      "componentType": 5126,
      "count": 4468,
      "max": [
        1.546966791152954,
        3.5071325302124023,
        1.0166378021240234
      ],
      "min": [
        -1.8727684020996094,
        -0.40436381101608276,
        -1.9051780700683594
      ],
      "type": "VEC3"
    },
    {
      "bufferView": 2,
      "byteOffset": 4986864,
      "componentType": 5126,
      "count": 4468,
      "max": [
        0.9953758120536804,
        0.9990546107292175,
        0.9999810457229614
      ],
      "min": [
        -0.9985692501068115,
        -0.9958516955375671,
        -0.9165633916854858
      ],
      "type": "VEC3"
    },
    {
      "bufferView": 1,
      "byteOffset": 3288832,
      "componentType": 5126,
      "count": 4468,
      "max": [
        0.9936930537223816,
        0.8887749910354614
      ],
      "min": [
        0.025752797722816467,
        0.03147251158952713
      ],
      "type": "VEC2"
    },
    {
      "bufferView": 1,
      "byteOffset": 3324576,
      "componentType": 5126,
      "count": 4468,
      "max": [
        0.9936930537223816,
        0.8887749910354614
      ],
      "min": [
        0.025752797722816467,
        0.03147251158952713
      ],
      "type": "VEC2"
    },
    {
      "bufferView": 0,
      "byteOffset": 4100148,
      "componentType": 5125,
      "count": 20892,
      "type": "SCALAR"
    }
  ],
  "asset": {
    "extras": {
      "author": "matousekfoto (https://sketchfab.com/matousekfoto)",
      "license": "CC-BY-4.0 (http://creativecommons.org/licenses/by/4.0/)",
      "source": "https://sketchfab.com/3d-models/pile-of-dirt-c86a4e9d981d4f029cc9261fde52cb7c",
      "title": "Pile of dirt"
    },
    "generator": "Sketchfab-12.67.0",
    "version": "2.0"
  },
  "bufferViews": [
    {
      "buffer": 0,
      "byteLength": 4183716,
      "name": "floatBufferViews",
      "target": 34963
    },
    {
      "buffer": 0,
      "byteLength": 3360320,
      "byteOffset": 4183716,
      "byteStride": 8,
      "name": "floatBufferViews",
      "target": 34962
    },
    {
      "buffer": 0,
      "byteLength": 5040480,
      "byteOffset": 7544036,
      "byteStride": 12,
      "name": "floatBufferViews",
      "target": 34962
    }
  ],
  "buffers": [
    {
      "byteLength": 12584516,
      "uri": "scene.bin"
    }
  ],
  "extensionsUsed": [
    "KHR_materials_unlit"
  ],
  "images": [
    {
      "uri": "textures/material2_baseColor.jpeg"
    },
    {
      "uri": "textures/material0_baseColor.jpeg"
    },
    {
      "uri": "textures/material1_baseColor.jpeg"
    }
  ],
  "materials": [
    {
      "doubleSided": true,
      "extensions": {
        "KHR_materials_unlit": {}
      },
      "name": "material2",
      "pbrMetallicRoughness": {
        "baseColorTexture": {
          "index": 0
        },
        "metallicFactor": 0.0
      }
    },
    {
      "doubleSided": true,
      "extensions": {
        "KHR_materials_unlit": {}
      },
      "name": "material0",
      "pbrMetallicRoughness": {
        "baseColorTexture": {
          "index": 1
        },
        "metallicFactor": 0.0
      }
    },
    {
      "doubleSided": true,
      "extensions": {
        "KHR_materials_unlit": {}
      },
      "name": "material1",
      "pbrMetallicRoughness": {
        "baseColorTexture": {
          "index": 2
        },
        "metallicFactor": 0.0
      }
    }
  ],
  "meshes": [
    {
      "name": "Model_material2_0",
      "primitives": [
        {
          "attributes": {
            "NORMAL": 1,
            "POSITION": 0,
            "TEXCOORD_0": 2,
            "TEXCOORD_1": 3
          },
          "indices": 4,
          "material": 0,
          "mode": 4
        }
      ]
    },
    {
      "name": "Model_material2_0",
      "primitives": [
        {
          "attributes": {
            "NORMAL": 6,
            "POSITION": 5,
            "TEXCOORD_0": 7,
            "TEXCOORD_1": 8
          },
          "indices": 9,
          "material": 0,
          "mode": 4
        }
      ]
    },
    {
      "name": "Model_material0_0",
      "primitives": [
        {
          "attributes": {
            "NORMAL": 11,
            "POSITION": 10,
            "TEXCOORD_0": 12,
            "TEXCOORD_1": 13
          },
          "indices": 14,
          "material": 1,
          "mode": 4
        }
      ]
    },
    {
      "name": "Model_material0_0",
      "primitives": [
        {
          "attributes": {
            "NORMAL": 16,
            "POSITION": 15,
            "TEXCOORD_0": 17,
            "TEXCOORD_1": 18
          },
          "indices": 19,
          "material": 1,
          "mode": 4
        }
      ]
    },
    {
      "name": "Model_material1_0",
      "primitives": [
        {
          "attributes": {
            "NORMAL": 21,
            "POSITION": 20,
            "TEXCOORD_0": 22,
            "TEXCOORD_1": 23
          },
          "indices": 24,
          "material": 2,
          "mode": 4
        }
      ]
    },
    {
      "name": "Model_material1_0",
      "primitives": [
        {
          "attributes": {
            "NORMAL": 26,
            "POSITION": 25,
            "TEXCOORD_0": 27,
            "TEXCOORD_1": 28
          },
          "indices": 29,
          "material": 2,
          "mode": 4
        }
      ]
    }
  ],
  "nodes": [
    {
      "children": [
        1
      ],
      "matrix": [
        -0.19133489455010277,
        -0.07913571592745017,
        -0.005907858528772587,
        0.0,
        -0.048405724175644815,
        0.10416723137393631,
        0.17237308458229886,
        0.0,
        -0.06288282855322258,
        0.16060239956094516,
        -0.11471278079742127,
        0.0,
        3.153184413909912,
        17.797697067260742,
        5.580708980560306,
        1.0
      ],
      "name": "Sketchfab_model"
    },
    {
      "children": [
        2
      ],
      "matrix": [
        0.009999999776482582,
        0.0,
        0.0,
        0.0,
        0.0,
        0.0,
        0.009999999776482582,
        0.0,
        0.0,
        -0.009999999776482582,
        0.0,
        0.0,
        0.0,
        0.0,
        0.0,
        1.0
      ],
      "name": "mud-soil-heap.fbx"
    },
    {
      "children": [
        3
      ],
      "name": "RootNode"
    },
    {
      "children": [
        4,
        5,
        6,
        7,
        8,
        9
      ],
      "matrix": [
        100.0,
        0.0,
        0.0,
        0.0,
        0.0,
        -1.629206793918314e-05,
        -99.99999999999868,
        0.0,
        0.0,
        99.99999999999868,
        -1.629206793918314e-05,
        0.0,
        0.0,
        0.0,
        0.0,
        1.0
      ],
      "name": "Model"
    },
    {
      "mesh": 0,
      "name": "Model_material2_0"
    },
    {
      "mesh": 1,
      "name": "Model_material2_0"
    },
    {
      "mesh": 2,
      "name": "Model_material0_0"
    },
    {
      "mesh": 3,
      "name": "Model_material0_0"
    },
    {
      "mesh": 4,
      "name": "Model_material1_0"
    },
    {
      "mesh": 5,
      "name": "Model_material1_0"
    }
  ],
  "samplers": [
    {
      "magFilter": 9729,
      "minFilter": 9987,
      "wrapS": 10497,
      "wrapT": 10497
    }
  ],
  "scene": 0,
  "scenes": [
    {
      "name": "Sketchfab_Scene",
      "nodes": [
        0
      ]
    }
  ],
  "textures": [
    {
      "sampler": 0,
      "source": 0
    },
    {
      "sampler": 0,
      "source": 1
    },
    {
      "sampler": 0,
      "source": 2
    }
  ]
}
