{
  "accessors": [
    {
      "bufferView": 2,
      "componentType": 5126,
      "count": 1478,
      "max": [
        6.769330024719238,
        16.53091049194336,
        6.0038299560546875
      ],
      "min": [
        -6.769330024719238,
        -5.366979598999023,
        -8.067569732666016
      ],
      "type": "VEC3"
    },
    {
      "bufferView": 2,
      "byteOffset": 17736,
      "componentType": 5126,
      "count": 1478,
      "max": [
        0.9994506239891052,
        0.985008180141449,
        0.9971559643745422
      ],
      "min": [
        -0.99945068359375,
        -0.9999839067459106,
        -0.9982480406761169
      ],
      "type": "VEC3"
    },
    {
      "bufferView": 3,
      "componentType": 5126,
      "count": 1478,
      "max": [
        0.9999797940254211,
        0.999238908290863,
        0.995227038860321,
        1.0
      ],
      "min": [
        -0.9999976754188538,
        -0.9986120462417603,
        -0.9956934452056885,
        -1.0
      ],
      "type": "VEC4"
    },
    {
      "bufferView": 1,
      "componentType": 5126,
      "count": 1478,
      "max": [
        0.9919717907905579,
        1.0095629692077637
      ],
      "min": [
        0.007082344964146614,
        0.007560977712273598
      ],
      "type": "VEC2"
    },
    {
      "bufferView": 0,
      "componentType": 5125,
      "count": 6594,
      "type": "SCALAR"
    },
    {
      "bufferView": 2,
      "byteOffset": 35472,
      "componentType": 5126,
      "count": 302,
      "max": [
        1.077231526374817,
        1.0855553150177002,
        1.0920109748840332
      ],
      "min": [
        -4.776549816131592,
        -1.0855551958084106,
        -1.0920109748840332
      ],
      "type": "VEC3"
    },
    {
      "bufferView": 2,
      "byteOffset": 39096,
      "componentType": 5126,
      "count": 302,
      "max": [
        0.987424910068512,
        0.9916701316833496,
        0.9992232322692871
      ],
      "min": [
        -0.987424910068512,
        -0.9916699528694153,
        -0.9992232322692871
      ],
      "type": "VEC3"
    },
    {
      "bufferView": 1,
      "byteOffset": 11824,
      "componentType": 5126,
      "count": 302,
      "max": [
        1.0000001192092896,
        1.0
      ],
      "min": [
        0.0,
        5.960464477539063e-08
      ],
      "type": "VEC2"
    },
    {
      "bufferView": 0,
      "byteOffset": 26376,
      "componentType": 5125,
      "count": 1344,
      "type": "SCALAR"
    },
    {
      "bufferView": 2,
      "byteOffset": 42720,
      "componentType": 5126,
      "count": 22928,
      "max": [
        6.2266435623168945,
        7.570257663726807,
        15.097380638122559
      ],
      "min": [
        -2.745615243911743,
        -15.795089721679688,
        -1.095942497253418
      ],
      "type": "VEC3"
    },
    {
      "bufferView": 2,
      "byteOffset": 317856,
      "componentType": 5126,
      "count": 22928,
      "max": [
        0.9903104305267334,
        0.9996106624603271,
        0.9635388255119324
      ],
      "min": [
        -0.9889647960662842,
        -0.9999626874923706,
        -0.9998722672462463
      ],
      "type": "VEC3"
    },
    {
      "bufferView": 3,
      "byteOffset": 23648,
      "componentType": 5126,
      "count": 22928,
      "max": [
        0.9998987317085266,
        0.7693329453468323,
        0.9999568462371826,
        1.0
      ],
      "min": [
        -0.9999961256980896,
        -0.9588862061500549,
        -0.999539315700531,
        1.0
      ],
      "type": "VEC4"
    },
    {
      "bufferView": 1,
      "byteOffset": 14240,
      "componentType": 5126,
      "count": 22928,
      "max": [
        0.9760881066322327,
        0.7427846789360046
      ],
      "min": [
        0.65186607837677,
        0.02766537107527256
      ],
      "type": "VEC2"
    },
    {
      "bufferView": 0,
      "byteOffset": 31752,
      "componentType": 5125,
      "count": 53064,
      "type": "SCALAR"
    },
    {
      "bufferView": 2,
      "byteOffset": 592992,
      "componentType": 5126,
      "count": 14640,
      "max": [
        22.063133239746094,
        12.084527969360352,
        21.08587074279785
      ],
      "min": [
        -27.128917694091797,
        -44.130836486816406,
        -41.16487503051758
      ],
      "type": "VEC3"
    },
    {
      "bufferView": 2,
      "byteOffset": 768672,
      "componentType": 5126,
      "count": 14640,
      "max": [
        0.7939814925193787,
        0.9916197657585144,
        0.9998557567596436
      ],
      "min": [
        -0.9900293946266174,
        -0.984718382358551,
        -0.9907300472259521
      ],
      "type": "VEC3"
    },
    {
      "bufferView": 3,
      "byteOffset": 390496,
      "componentType": 5126,
      "count": 14640,
      "max": [
        0.9999988675117493,
        0.9991534948348999,
        0.9639202952384949,
        -1.0
      ],
      "min": [
        -0.9675900340080261,
        -0.9220709204673767,
        -0.9923336505889893,
        -1.0
      ],
      "type": "VEC4"
    },
    {
      "bufferView": 1,
      "byteOffset": 197664,
      "componentType": 5126,
      "count": 14640,
      "max": [
        0.7182182669639587,
        0.9180901646614075
      ],
      "min": [
        0.393996000289917,
        0.2029712200164795
      ],
      "type": "VEC2"
    },
    {
      "bufferView": 0,
      "byteOffset": 244008,
      "componentType": 5125,
      "count": 35136,
      "type": "SCALAR"
    },
    {
      "bufferView": 2,
      "byteOffset": 944352,
      "componentType": 5126,
      "count": 180,
      "max": [
        6.853387832641602,
        6.4658684730529785,
        2.91083025932312
      ],
      "min": [
        -6.550127983093262,
        -12.283878326416016,
        -6.244106292724609
      ],
      "type": "VEC3"
    },
    {
      "bufferView": 2,
      "byteOffset": 946512,
      "componentType": 5126,
      "count": 180,
      "max": [
        0.5127871632575989,
        0.7156045436859131,
        0.9998307228088379
      ],
      "min": [
        -0.5536882281303406,
        -0.5301900506019592,
        0.5541696548461914
      ],
      "type": "VEC3"
    },
    {
      "bufferView": 3,
      "byteOffset": 624736,
      "componentType": 5126,
      "count": 180,
      "max": [
        0.9999629259109497,
        0.7977373003959656,
        0.5098156332969666,
        1.0
      ],
      "min": [
        0.5565214157104492,
        -0.5252029895782471,
        -0.6674364805221558,
        -1.0
      ],
      "type": "VEC4"
    },
    {
      "bufferView": 1,
      "byteOffset": 314784,
      "componentType": 5126,
      "count": 180,
      "max": [
        0.09188280999660492,
        0.9904448986053467
      ],
      "min": [
        0.027665378525853157,
        0.016416406258940697
      ],
      "type": "VEC2"
    },
    {
      "bufferView": 0,
      "byteOffset": 384552,
      "componentType": 5125,
      "count": 480,
      "type": "SCALAR"
    },
    {
      "bufferView": 2,
      "byteOffset": 948672,
      "componentType": 5126,
      "count": 65532,
      "max": [
        10.306211471557617,
        8.479042053222656,
        1.1413612365722656
      ],
      "min": [
        -15.367794036865234,
        -16.46502113342285,
        -28.603052139282227
      ],
      "type": "VEC3"
    },
    {
      "bufferView": 2,
      "byteOffset": 1735056,
      "componentType": 5126,
      "count": 65532,
      "max": [
        0.999598503112793,
        0.9999843239784241,
        0.999955415725708
      ],
      "min": [
        -0.999906063079834,
        -0.9999939203262329,
        -0.9999476075172424
      ],
      "type": "VEC3"
    },
    {
      "bufferView": 3,
      "byteOffset": 627616,
      "componentType": 5126,
      "count": 65532,
      "max": [
        0.9999226331710815,
        0.998652994632721,
        0.9997162222862244,
        1.0
      ],
      "min": [
        -0.9996739625930786,
        -0.9998916387557983,
        -0.9999932646751404,
        1.0
      ],
      "type": "VEC4"
    },
    {
      "bufferView": 1,
      "byteOffset": 316224,
      "componentType": 5126,
      "count": 65532,
      "max": [
        0.45602136850357056,
        0.7427854537963867
      ],
      "min": [
        0.1317993402481079,
        0.02766537107527256
      ],
      "type": "VEC2"
    },
    {
      "bufferView": 0,
      "byteOffset": 386472,
      "componentType": 5125,
      "count": 150390,
      "type": "SCALAR"
    },
    {
      "bufferView": 2,
      "byteOffset": 2521440,
      "componentType": 5126,
      "count": 11634,
      "max": [
        6.734488487243652,
        7.266878128051758,
        -8.802263259887695
      ],
      "min": [
        -14.545742988586426,
        -16.054487228393555,
        -25.295286178588867
      ],
      "type": "VEC3"
    },
    {
      "bufferView": 2,
      "byteOffset": 2661048,
      "componentType": 5126,
      "count": 11634,
      "max": [
        0.990949809551239,
        0.8645021319389343,
        0.8854892253875732
      ],
      "min": [
        -0.9999223947525024,
        -0.9995289444923401,
        -0.999905526638031
      ],
      "type": "VEC3"
    },
    {
      "bufferView": 3,
      "byteOffset": 1676128,
      "componentType": 5126,
      "count": 11634,
      "max": [
        0.9997817277908325,
        0.997315526008606,
        0.999978244304657,
        1.0
      ],
      "min": [
        -0.9999709725379944,
        -0.9993312358856201,
        -0.9957071542739868,
        1.0
      ],
      "type": "VEC4"
    },
    {
      "bufferView": 1,
      "byteOffset": 840480,
      "componentType": 5126,
      "count": 11634,
      "max": [
        0.45602136850357056,
        0.7427854537963867
      ],
      "min": [
        0.1317993402481079,
        0.02766537107527256
      ],
      "type": "VEC2"
    },
    {
      "bufferView": 0,
      "byteOffset": 988032,
      "componentType": 5125,
      "count": 27918,
      "type": "SCALAR"
    }
  ],
  "asset": {
    "extras": {
      "author": "Jom (https://sketchfab.com/jom239300891)",
      "license": "CC-BY-4.0 (http://creativecommons.org/licenses/by/4.0/)",
      "source": "https://sketchfab.com/3d-models/guinea-pig-e2613341a1664ddfbaccdbb9fb8ee362",
      "title": "Guinea pig"
    },
    "generator": "Sketchfab-12.67.0",
    "version": "2.0"
  },
  "bufferViews": [
    {
      "buffer": 0,
      "byteLength": 1099704,
      "name": "floatBufferViews",
      "target": 34963
    },
    {
      "buffer": 0,
      "byteLength": 933552,
      "byteOffset": 1099704,
      "byteStride": 8,
      "name": "floatBufferViews",
      "target": 34962
    },
    {
      "buffer": 0,
      "byteLength": 2800656,
      "byteOffset": 2033256,
      "byteStride": 12,
      "name": "floatBufferViews",
      "target": 34962
    },
    {
      "buffer": 0,
      "byteLength": 1862272,
      "byteOffset": 4833912,
      "byteStride": 16,
      "name": "floatBufferViews",
      "target": 34962
    }
  ],
  "buffers": [
    {
      "byteLength": 6696184,
      "uri": "scene.bin"
    }
  ],
  "extensionsRequired": [
    "KHR_materials_pbrSpecularGlossiness"
  ],
  "extensionsUsed": [
    "KHR_materials_pbrSpecularGlossiness"
  ],
  "images": [
    {
      "uri": "textures/fur_g2870__0_diffuse.png"
    },
    {
      "uri": "textures/fur_g2870__0_specularGlossiness.png"
    },
    {
      "uri": "textures/fur_g2870__0_normal.png"
    },
    {
      "uri": "textures/body_diffuse.png"
    },
    {
      "uri": "textures/body_specularGlossiness.png"
    },
    {
      "uri": "textures/body_normal.png"
    },
    {
      "uri": "textures/material_diffuse.png"
    },
    {
      "uri": "textures/material_specularGlossiness.png"
    }
  ],
  "materials": [
    {
      "alphaMode": "BLEND",
      "doubleSided": true,
      "extensions": {
        "KHR_materials_pbrSpecularGlossiness": {
          "diffuseFactor": [
            0.5862233232,
            0.5862233232,
            0.5862233232,
            1.0
          ],
          "diffuseTexture": {
            "index": 0
          },
          "glossinessFactor": 1.0,
          "specularFactor": [
            0.3423208841,
            0.3423208841,
            0.3423208841
          ],
          "specularGlossinessTexture": {
            "index": 1
          }
        }
      },
      "name": "fur_g2870__0",
      "normalTexture": {
        "index": 2
      }
    },
    {
      "extensions": {
        "KHR_materials_pbrSpecularGlossiness": {
          "diffuseFactor": [
            1.0,
            1.0,
            1.0,
            1.0
          ],
          "diffuseTexture": {
            "index": 3
          },
          "glossinessFactor": 1.0,
          "specularFactor": [
            1.0,
            1.0,
            1.0
          ],
          "specularGlossinessTexture": {
            "index": 4
          }
        }
      },
      "name": "body",
      "normalTexture": {
        "index": 5
      }
    },
    {
      "extensions": {
        "KHR_materials_pbrSpecularGlossiness": {
          "diffuseFactor": [
            1.0,
            1.0,
            1.0,
            1.0
          ],
          "diffuseTexture": {
            "index": 6
          },
          "glossinessFactor": 1.0,
          "specularFactor": [
            1.0,
            1.0,
            1.0
          ],
          "specularGlossinessTexture": {
            "index": 7
          }
        }
      },
      "name": "material"
    },
    {
      "alphaMode": "BLEND",
      "doubleSided": true,
      "extensions": {
        "KHR_materials_pbrSpecularGlossiness": {
          "diffuseFactor": [
            0.4642721037,
            0.4642721037,
            0.4642721037,
            0.8484184451
          ],
          "diffuseTexture": {
            "index": 0
          },
          "glossinessFactor": 1.0,
          "specularFactor": [
            0.0,
            0.0,
            0.0
          ],
          "specularGlossinessTexture": {
            "index": 1
          }
        }
      },
      "name": "material_3",
      "normalTexture": {
        "index": 2
      }
    }
  ],
  "meshes": [
    {
      "name": "body_body_0",
      "primitives": [
        {
          "attributes": {
            "NORMAL": 1,
            "POSITION": 0,
            "TANGENT": 2,
            "TEXCOORD_0": 3
          },
          "indices": 4,
          "material": 1,
          "mode": 4
        }
      ]
    },
    {
      "name": "eyes_eye_0",
      "primitives": [
        {
          "attributes": {
            "NORMAL": 6,
            "POSITION": 5,
            "TEXCOORD_0": 7
          },
          "indices": 8,
          "material": 2,
          "mode": 4
        }
      ]
    },
    {
      "name": "fur_w1802_fur_0",
      "primitives": [
        {
          "attributes": {
            "NORMAL": 10,
            "POSITION": 9,
            "TANGENT": 11,
            "TEXCOORD_0": 12
          },
          "indices": 13,
          "material": 3,
          "mode": 4
        }
      ]
    },
    {
      "name": "fur_d001_fur_0",
      "primitives": [
        {
          "attributes": {
            "NORMAL": 15,
            "POSITION": 14,
            "TANGENT": 16,
            "TEXCOORD_0": 17
          },
          "indices": 18,
          "material": 3,
          "mode": 4
        }
      ]
    },
    {
      "name": "fur_l001_fur_0",
      "primitives": [
        {
          "attributes": {
            "NORMAL": 20,
            "POSITION": 19,
            "TANGENT": 21,
            "TEXCOORD_0": 22
          },
          "indices": 23,
          "material": 3,
          "mode": 4
        }
      ]
    },
    {
      "name": "fur_g2870__0",
      "primitives": [
        {
          "attributes": {
            "NORMAL": 25,
            "POSITION": 24,
            "TANGENT": 26,
            "TEXCOORD_0": 27
          },
          "indices": 28,
          "material": 0,
          "mode": 4
        }
      ]
    },
    {
      "name": "fur_g2870__0",
      "primitives": [
        {
          "attributes": {
            "NORMAL": 30,
            "POSITION": 29,
            "TANGENT": 31,
            "TEXCOORD_0": 32
          },
          "indices": 33,
          "material": 0,
          "mode": 4
        }
      ]
    }
  ],
  "nodes": [
    {
      "children": [
        1
      ],
      "matrix": [
        0.01666666753590107,
        0.0,
        0.0,
        0.0,
        0.0,
        3.700743608425998e-18,
        -0.01666666753590107,
        0.0,
        0.0,
        0.01666666753590107,
        3.700743608425998e-18,
        0.0,
        0.0,
        0.0,
        0.0,
        1.0
      ],
      "name": "Sketchfab_model"
    },
    {
      "children": [
        2
      ],
      "matrix": [
        1.0,
        0.0,
        0.0,
        0.0,
        0.0,
        0.0,
        1.0,
        0.0,
        0.0,
        -1.0,
        0.0,
        0.0,
        0.0,
        0.0,
        0.0,
        1.0
      ],
      "name": "d3593038df0d482082cfa72730200124.fbx"
    },
    {
      "children": [
        3,
        5,
        8,
        10,
        13,
        16
      ],
      "name": "RootNode"
    },
    {
      "children": [
        4
      ],
      "matrix": [
        1.0,
        0.0,
        0.0,
        0.0,
        0.0,
        2.220446049250313e-16,
        -1.0,
        0.0,
        0.0,
        1.0,
        2.220446049250313e-16,
        0.0,
        0.0,
        0.0,
        0.0,
        1.0
      ],
      "name": "body"
    },
    {
      "mesh": 0,
      "name": "body_body_0"
    },
    {
      "children": [
        6
      ],
      "matrix": [
        1.0,
        0.0,
        0.0,
        0.0,
        0.0,
        2.220446049250313e-16,
        -1.0,
        0.0,
        0.0,
        1.0,
        2.220446049250313e-16,
        0.0,
        0.0,
        3.1650609970092773,
        1.5079245567321777,
        1.0
      ],
      "name": "eyes"
    },
    {
      "children": [
        7
      ],
      "matrix": [
        1.0,
        0.0,
        -0.0,
        0.0,
        0.0,
        1.0,
        0.0,
        0.0,
        0.0,
        0.0,
        1.0,
        0.0,
        1.8496590852737427,
        0.0,
        0.0,
        1.0
      ],
      "name": "Object_6"
    },
    {
      "mesh": 1,
      "name": "eyes_eye_0"
    },
    {
      "children": [
        9
      ],
      "matrix": [
        1.0,
        0.0,
        0.0,
        0.0,
        0.0,
        1.7484555336899632e-07,
        -0.9999999999999847,
        0.0,
        0.0,
        0.9999999999999847,
        1.7484555336899632e-07,
        0.0,
        -1.6316763162612915,
        -7.97713565826416,
        -9.589103698730469,
        1.0
      ],
      "name": "fur_w1802"
    },
    {
      "mesh": 2,
      "name": "fur_w1802_fur_0"
    },
    {
      "children": [
        11
      ],
      "matrix": [
        0.17659719022662412,
        -0.24971607824912193,
        0.04746774857168875,
        0.0,
        0.22557089398001828,
        0.1273155542920204,
        -0.169429673786113,
        0.0,
        0.11717117047529753,
        0.13126500246016623,
        0.2546335671673445,
        0.0,
        4.957120895385742,
        0.838920533657074,
        -6.4103779792785645,
        1.0
      ],
      "name": "fur_d001"
    },
    {
      "children": [
        12
      ],
      "matrix": [
        1.0,
        0.0,
        -0.0,
        0.0,
        0.0,
        1.0,
        0.0,
        0.0,
        0.0,
        0.0,
        1.0,
        0.0,
        0.0,
        1.1572684049606323,
        -1.379571443749228e-07,
        1.0
      ],
      "name": "Object_11"
    },
    {
      "mesh": 3,
      "name": "fur_d001_fur_0"
    },
    {
      "children": [
        14
      ],
      "matrix": [
        -0.156634319836482,
        -0.5442223687455879,
        -0.24651674063831386,
        0.0,
        0.5834476329150828,
        -0.1941890803754296,
        0.05798437107180651,
        0.0,
        -0.12859735926642996,
        -0.21816369579769987,
        0.5633383065312092,
        0.0,
        0.799898624420166,
        0.41474294662475586,
        5.555916786193848,
        1.0
      ],
      "name": "fur_l001"
    },
    {
      "children": [
        15
      ],
      "matrix": [
        1.0,
        0.0,
        -0.0,
        0.0,
        0.0,
        1.0,
        0.0,
        0.0,
        0.0,
        0.0,
        1.0,
        0.0,
        0.0,
        1.1572684049606323,
        -1.379571443749228e-07,
        1.0
      ],
      "name": "Object_14"
    },
    {
      "mesh": 4,
      "name": "fur_l001_fur_0"
    },
    {
      "children": [
        17
      ],
      "matrix": [
        0.6582492828898874,
        -0.11836145921184416,
        -0.3382610197144043,
        0.0,
        -0.21206849033554637,
        -0.6989162734300305,
        -0.1681221848880097,
        0.0,
        -0.28888909271862084,
        0.24336942827306554,
        -0.6473302745896334,
        0.0,
        -2.546104669570923,
        -0.630588173866272,
        -16.02741050720215,
        1.0
      ],
      "name": "fur_g2870"
    },
    {
      "children": [
        18,
        19
      ],
      "matrix": [
        1.0,
        0.0,
        -0.0,
        0.0,
        0.0,
        1.0,
        0.0,
        0.0,
        0.0,
        0.0,
        1.0,
        0.0,
        0.0,
        1.1572684049606323,
        -1.379571443749228e-07,
        1.0
      ],
      "name": "Object_17"
    },
    {
      "mesh": 5,
      "name": "fur_g2870__0"
    },
    {
      "mesh": 6,
      "name": "fur_g2870__0"
    }
  ],
  "samplers": [
    {
      "magFilter": 9729,
      "minFilter": 9987,
      "wrapS": 10497,
      "wrapT": 10497
    }
  ],
  "scene": 0,
  "scenes": [
    {
      "name": "Sketchfab_Scene",
      "nodes": [
        0
      ]
    }
  ],
  "textures": [
    {
      "sampler": 0,
      "source": 0
    },
    {
      "sampler": 0,
      "source": 1
    },
    {
      "sampler": 0,
      "source": 2
    },
    {
      "sampler": 0,
      "source": 3
    },
    {
      "sampler": 0,
      "source": 4
    },
    {
      "sampler": 0,
      "source": 5
    },
    {
      "sampler": 0,
      "source": 6
    },
    {
      "sampler": 0,
      "source": 7
    }
  ]
}
